<svg xmlns="http://www.w3.org/2000/svg" xmlns:xlink="http://www.w3.org/1999/xlink" width="1920" zoomAndPan="magnify" viewBox="0 0 1440 809.999993" height="1080" preserveAspectRatio="xMidYMid meet" version="1.0"><defs><clipPath id="3259a03951"><path d="M 0 144 L 720 144 L 720 334 L 0 334 Z M 0 144 " clip-rule="nonzero"/></clipPath><clipPath id="c72c579844"><path d="M -251.164062 259.15625 L 710.992188 144.199219 L 719.890625 218.671875 L -242.265625 333.628906 Z M -251.164062 259.15625 " clip-rule="nonzero"/></clipPath><clipPath id="e36f8c9177"><path d="M -251.164062 259.15625 L 710.992188 144.199219 L 719.890625 218.671875 L -242.265625 333.628906 Z M -251.164062 259.15625 " clip-rule="nonzero"/></clipPath><clipPath id="8d1e405500"><path d="M 720 542 L 1440 542 L 1440 729 L 720 729 Z M 720 542 " clip-rule="nonzero"/></clipPath><clipPath id="2a12a54510"><path d="M 728.671875 542.488281 L 1691.191406 654.351562 L 1682.535156 728.851562 L 720.011719 616.984375 Z M 728.671875 542.488281 " clip-rule="nonzero"/></clipPath><clipPath id="4ef9600305"><path d="M 1682.789062 728.996094 L 720.269531 617.132812 L 728.925781 542.632812 L 1691.449219 654.5 Z M 1682.789062 728.996094 " clip-rule="nonzero"/></clipPath><clipPath id="497b98f6db"><path d="M 701.226562 142 L 732.726562 142 L 732.726562 619 L 701.226562 619 Z M 701.226562 142 " clip-rule="nonzero"/></clipPath></defs><g clip-path="url(#3259a03951)"><g clip-path="url(#c72c579844)"><g clip-path="url(#e36f8c9177)"><path fill="#9669f5" d="M -251.132812 259.429688 L 711.027344 144.472656 L 719.859375 218.398438 L -242.300781 333.355469 Z M -251.132812 259.429688 " fill-opacity="1" fill-rule="nonzero"/></g></g></g><g clip-path="url(#8d1e405500)"><g clip-path="url(#2a12a54510)"><g clip-path="url(#4ef9600305)"><path fill="#9669f5" d="M 1682.820312 728.71875 L 720.300781 616.855469 L 728.894531 542.910156 L 1691.414062 654.777344 Z M 1682.820312 728.71875 " fill-opacity="1" fill-rule="nonzero"/></g></g></g><g clip-path="url(#497b98f6db)"><path fill="#9669f5" d="M 732.726562 602.425781 L 732.726562 158.609375 C 732.726562 149.855469 725.675781 142.757812 716.976562 142.757812 C 708.277344 142.757812 701.226562 149.855469 701.226562 158.609375 L 701.226562 602.425781 C 701.226562 611.179688 708.277344 618.277344 716.976562 618.277344 C 725.675781 618.277344 732.726562 611.179688 732.726562 602.425781 Z M 732.726562 602.425781 " fill-opacity="1" fill-rule="nonzero"/></g></svg>